<?xml version="1.0" encoding="UTF-8" standalone="no"?>
<svg
   xmlns:dc="http://purl.org/dc/elements/1.1/"
   xmlns:cc="http://creativecommons.org/ns#"
   xmlns:rdf="http://www.w3.org/1999/02/22-rdf-syntax-ns#"
   xmlns:svg="http://www.w3.org/2000/svg"
   xmlns="http://www.w3.org/2000/svg"
   viewBox="0 0 273.33334 274.66666"
   height="274.66666"
   width="273.33334"
   xml:space="preserve"
   id="svg2"
   version="1.1"><metadata
     id="metadata8"><rdf:RDF><cc:Work
         rdf:about=""><dc:format>image/svg+xml</dc:format><dc:type
           rdf:resource="http://purl.org/dc/dcmitype/StillImage" /></cc:Work></rdf:RDF></metadata><defs
     id="defs6" /><g
     transform="matrix(1.3333333,0,0,-1.3333333,0,274.66667)"
     id="g10"><g
       transform="scale(0.1)"
       id="g12"><path
         id="path14"
         style="fill:#4c6fa1;fill-opacity:1;fill-rule:evenodd;stroke:none"
         d="m 1732.97,2050.25 c 173.69,0 314.49,-140.8 314.49,-314.49 l 0.01,-1411.963 c 0,-173.68 -140.81,-314.49231 -314.5,-314.49231 L 321.02,9.30859 C 147.336,9.30859 6.52734,150.113 6.52734,323.797 V 1735.76 c 0,173.69 140.80866,314.49 314.49266,314.49 h 1411.95" /><path
         id="path16"
         style="fill:#ffffff;fill-opacity:1;fill-rule:evenodd;stroke:none"
         d="m 1489.3,1012.78 c 0,0 176.36,248.76 193.88,330.52 5.84,29.19 -7.01,45.55 -37.38,45.55 0,0.01 -101.6,0 -152.99,0 -35.03,0.01 -47.88,-15.18 -58.4,-37.37 0.01,0 -82.71,-176.26 -183.36,-287.32 -32.3,-35.91 -48.74,-46.71 -66.57,-46.71 -14.38,0 -21.02,11.99 -21.02,44.38 v 283.8 c 0,39.71 -4.67,51.39 -37.37,51.39 H 880.832 c -18.691,0 -30.371,-10.86 -30.371,-25.69 0,-37.4 57.227,-45.84 57.227,-147.16 v -209.05 c 0,-42.054 -2.333,-58.405 -22.188,-58.405 -52.555,0 -177.52,181.025 -247.598,386.585 -14.015,42.04 -29.199,53.72 -68.91,53.72 H 416 c -22.191,0 -38.543,-15.18 -38.543,-37.37 0,-40.87 47.883,-230.08 235.918,-483.521 126.133,-170.512 291.98,-262.781 441.465,-262.781 91.11,0.004 113.29,15.183 113.29,53.726 v 130.809 c 0,32.699 12.85,46.711 31.53,46.711 21.02,0 58.13,-6.754 144.82,-92.266 102.79,-98.105 109.79,-138.98 165.86,-138.98 l 171.68,0.004 c 17.51,0 33.86,8.175 33.86,37.367 0,38.551 -50.22,107.449 -127.3,189.207 -31.53,42.047 -82.92,87.59 -99.28,108.609 -23.35,24.531 -16.35,38.555 0,64.245" /></g></g></svg>